HIERARCHY
ROOT Hips
{
	OFFSET -0.001795 -0.223333 0.028219
	CHANNELS 6 Xposition Yposition Zposition Zrotation Yrotation Xrotation 
	JOINT LeftUpLeg
	{
		OFFSET 0.069520 -0.091406 -0.006815
		CHANNELS 3 Zrotation Yrotation Xrotation
		JOINT LeftLeg
		{
			OFFSET 0.034277 -0.375199 -0.004496
			CHANNELS 3 Zrotation Yrotation Xrotation
			JOINT LeftFoot
			{
				OFFSET -0.013596 -0.397961 -0.043693
				CHANNELS 3 Zrotation Yrotation Xrotation
				JOINT LeftToe
				{
					OFFSET 0.026358 -0.055791 0.119288
					CHANNELS 3 Zrotation Yrotation Xrotation
					End Site
					{
						OFFSET 0.000000 0.000000 0.000000
					}
				}
			}
		}
	}
	JOINT RightUpLeg
	{
		OFFSET -0.067670 -0.090522 -0.004320
		CHANNELS 3 Zrotation Yrotation Xrotation
		JOINT RightLeg
		{
			OFFSET -0.038290 -0.382569 -0.008850
			CHANNELS 3 Zrotation Yrotation Xrotation
			JOINT RightFoot
			{
				OFFSET 0.015774 -0.398415 -0.042312
				CHANNELS 3 Zrotation Yrotation Xrotation
				JOINT RightToe
				{
					OFFSET -0.025372 -0.048144 0.123348
					CHANNELS 3 Zrotation Yrotation Xrotation
					End Site
					{
						OFFSET 0.000000 0.000000 0.000000
					}
				}
			}
		}
	}
	JOINT Spine
	{
		OFFSET -0.002533 0.108963 -0.026696
		CHANNELS 3 Zrotation Yrotation Xrotation
		JOINT Spine1
		{
			OFFSET 0.005487 0.135180 0.001092
			CHANNELS 3 Zrotation Yrotation Xrotation
			JOINT Spine2
			{
				OFFSET 0.001457 0.052922 0.025425
				CHANNELS 3 Zrotation Yrotation Xrotation
				JOINT Neck
				{
					OFFSET -0.002778 0.213870 -0.042857
					CHANNELS 3 Zrotation Yrotation Xrotation
					JOINT Head
					{
						OFFSET 0.005152 0.064970 0.051349
						CHANNELS 3 Zrotation Yrotation Xrotation
						End Site
						{
							OFFSET 0.000000 0.000000 0.000000
						}
					}
				}
				JOINT LeftShoulder
				{
					OFFSET 0.078845 0.121749 -0.034090
					CHANNELS 3 Zrotation Yrotation Xrotation
					JOINT LeftArm
					{
						OFFSET 0.090977 0.030469 -0.008868
						CHANNELS 3 Zrotation Yrotation Xrotation
						JOINT LeftForeArm
						{
							OFFSET 0.259612 -0.012772 -0.027456
							CHANNELS 3 Zrotation Yrotation Xrotation
							JOINT LeftHand
							{
								OFFSET 0.249234 0.008986 -0.001171
								CHANNELS 3 Zrotation Yrotation Xrotation
								End Site
								{
									OFFSET 0.000000 0.000000 0.000000
								}
							}
						}
					}
				}
				JOINT RightShoulder
				{
					OFFSET -0.081759 0.118833 -0.038615
					CHANNELS 3 Zrotation Yrotation Xrotation
					JOINT RightArm
					{
						OFFSET -0.096012 0.032551 -0.009143
						CHANNELS 3 Zrotation Yrotation Xrotation
						JOINT RightForeArm
						{
							OFFSET -0.253742 -0.013329 -0.021401
							CHANNELS 3 Zrotation Yrotation Xrotation
							JOINT RightHand
							{
								OFFSET -0.255298 0.007772 -0.005559
								CHANNELS 3 Zrotation Yrotation Xrotation
								End Site
								{
									OFFSET 0.000000 0.000000 0.000000
								}
							}
						}
					}
				}
			}
		}
	}
}
MOTION
Frames: 5
Frame Time: 0.050000
0.601344 0.958006 -1.105284 -0.601913 -49.227053 -11.880310 -6.330487 1.955735 10.139714 -1.923022 3.206057 18.586215 5.325125 11.696571 5.278783 0.000000 0.000000 0.000000 -2.081425 1.918816 -15.626366 -2.891728 2.424494 16.057466 10.332236 -2.791761 23.600420 0.000000 0.000000 0.000000 13.565386 0.173630 27.240120 -3.203506 0.029078 -17.378192 -1.253975 0.053083 36.294922 14.367416 -11.519394 -24.521532 0.000000 0.000000 0.000000 0.565314 -2.805851 0.937699 -76.725776 11.100288 -11.741267 -6.320760 -47.095306 8.848669 0.000000 0.000000 0.000000 18.727224 -7.262267 -12.177995 54.535741 -7.009675 -10.524129 -1.463640 52.093804 -3.088182 0.000000 0.000000 0.000000 
0.618516 0.960162 -1.113802 -0.866943 -50.258688 -12.145856 -6.167334 2.310615 11.362472 -2.541420 3.101220 16.831599 5.964123 12.838659 6.259474 0.000000 0.000000 0.000000 -2.159478 1.971768 -15.883809 -3.410425 2.631572 16.452173 10.837028 -3.377803 25.271489 0.000000 0.000000 0.000000 12.749172 0.413835 27.736803 -2.763589 -0.123129 -17.768365 -2.008162 -0.562339 36.287149 13.590624 -11.092949 -25.787552 0.000000 0.000000 0.000000 1.910628 -2.458896 0.351807 -77.803222 11.938911 -11.414651 -5.092745 -45.590707 7.841444 0.000000 0.000000 0.000000 19.540798 -6.826030 -12.873527 54.203241 -8.572665 -10.857000 0.355600 52.226656 -2.473303 0.000000 0.000000 0.000000 
0.633959 0.962400 -1.122873 -1.952904 -51.093894 -12.431106 -5.543290 2.534987 12.232249 -2.473421 3.102983 16.741090 6.841216 13.990259 8.261136 0.000000 0.000000 0.000000 -0.969862 2.071524 -16.127969 -3.101075 3.290715 19.186778 11.076102 -3.332079 25.743219 0.000000 0.000000 0.000000 12.431797 0.610744 28.377182 -2.900162 -0.084398 -17.719897 -2.476163 -1.232230 36.589401 13.435191 -11.104621 -26.106266 0.000000 0.000000 0.000000 2.298706 -2.870752 0.334317 -78.726837 11.810381 -10.954807 -1.822893 -44.218919 6.196996 0.000000 0.000000 0.000000 18.624831 -7.158125 -12.815429 54.876497 -8.957712 -11.406025 3.269423 50.368550 -1.162178 0.000000 0.000000 0.000000 
0.647950 0.963656 -1.132392 -3.116725 -51.753689 -12.279449 -4.626017 2.627436 12.671197 -2.771158 3.155102 16.265020 6.649416 13.266332 9.079820 0.000000 0.000000 0.000000 0.096050 2.405063 -17.304975 -1.292197 4.466417 24.510954 8.524407 -5.636155 23.921537 0.000000 0.000000 0.000000 12.697144 0.731282 29.173235 -3.539146 0.108124 -18.717086 -3.114521 -2.380275 37.286594 12.472207 -10.873560 -26.251642 0.000000 0.000000 0.000000 1.346610 -1.262669 -0.017544 -77.177636 12.655606 -11.221140 -3.149420 -43.093105 6.675680 0.000000 0.000000 0.000000 19.163360 -8.071384 -14.072230 54.303081 -11.799333 -12.455007 8.849319 48.995842 1.196969 0.000000 0.000000 0.000000 
0.660938 0.964429 -1.142073 -3.735882 -52.593972 -12.307972 -4.121290 2.851262 13.455754 -3.180692 3.162348 15.362681 6.286517 12.509184 9.182322 0.000000 0.000000 0.000000 1.093343 2.728913 -18.231634 -0.210059 6.098533 30.043663 5.921505 -8.747007 23.391143 0.000000 0.000000 0.000000 12.294225 0.796573 28.868000 -3.887738 0.142460 -18.218429 -3.478681 -2.773907 37.831245 10.951647 -10.228508 -26.788195 0.000000 0.000000 0.000000 0.978004 -0.696255 -0.136164 -76.998220 12.457442 -10.852419 -0.434900 -39.915238 4.986280 0.000000 0.000000 0.000000 18.626307 -6.774539 -13.474740 56.634855 -14.617537 -14.754416 8.558471 46.418536 1.047089 0.000000 0.000000 0.000000 
